<?xml version="1.0" encoding="iso-8859-1"?>
<!-- Uploaded to: SVG Repo, www.svgrepo.com, Generator: SVG Repo Mixer Tools -->
<svg fill="#000000" version="1.1" id="Layer_1" xmlns="http://www.w3.org/2000/svg" xmlns:xlink="http://www.w3.org/1999/xlink" 
	 viewBox="0 0 512 512" xml:space="preserve">
<g>
	<g>
		<g>
			<polygon points="184.119,36.023 184.119,139.925 199.798,139.925 199.798,51.702 496.321,51.702 496.321,348.226 
				336.052,348.226 336.052,363.905 512,363.905 512,36.023 			"/>
			<path d="M295.721,180.219H32.312v208.01h263.409V180.219z M280.042,372.549H47.991V195.898h232.051V372.549z"/>
			<path d="M127.917,335.132l24.015-24.015l48.031,48.031l56.988-56.988c16.623-16.624,16.623-43.672,0-60.297
				c-15.561-15.561-40.261-16.555-56.988-2.981c-1.401-1.136-2.862-2.162-4.364-3.094c-2.02-6.731-5.687-12.933-10.694-17.941
				c-15.561-15.56-40.258-16.556-56.988-2.981c-16.729-13.574-41.426-12.58-56.988,2.982c-16.623,16.623-16.623,43.672,0,60.296
				L127.917,335.132z M192.183,252.952l7.779,7.779l7.782-7.78c10.511-10.511,27.613-10.511,38.121,0
				c10.51,10.51,10.51,27.611,0,38.121l-45.902,45.902l-45.901-45.902c-5.092-5.09-7.895-11.861-7.895-19.06
				c0-7.201,2.804-13.97,7.895-19.061c5.255-5.256,12.158-7.883,19.061-7.883S186.929,247.696,192.183,252.952z M82.015,228.935
				c10.508-10.511,27.61-10.511,38.12-0.002l7.781,7.785l7.78-7.783c10.511-10.51,27.613-10.51,38.121-0.001
				c0.157,0.157,0.295,0.326,0.447,0.486c-11.296-0.3-22.689,3.842-31.29,12.443c-8.053,8.053-12.488,18.76-12.488,30.148
				c0,10.378,3.693,20.182,10.44,27.936l-13.011,13.012l-45.902-45.902C71.505,256.546,71.505,239.445,82.015,228.935z"/>
			<path d="M409.051,174.075c16.623-16.624,16.623-43.672,0-60.297c-15.562-15.562-40.26-16.555-56.988-2.981
				c-16.73-13.575-41.426-12.58-56.988,2.981c-9.114,9.115-13.456,21.805-12.251,34.316H0v327.882h327.881V206.883l24.181,24.181
				L409.051,174.075z M312.202,460.299H15.679V163.775h296.523V460.299z M327.88,184.708v-36.612h-29.279
				c-1.296-8.397,1.426-17.094,7.559-23.229c10.51-10.512,27.611-10.51,38.122,0l7.78,7.779l7.779-7.779
				c10.51-10.51,27.611-10.51,38.122,0c10.51,10.51,10.51,27.611,0,38.121l-45.902,45.902L327.88,184.708z"/>
			<rect x="231.957" y="403.905" width="15.679" height="15.679"/>
			<rect x="255.998" y="403.905" width="15.679" height="15.679"/>
			<rect x="280.04" y="403.905" width="15.679" height="15.679"/>
			<rect x="32.312" y="403.905" width="95.12" height="15.679"/>
			<polygon points="479.69,68.374 216.28,68.374 216.28,139.453 231.959,139.453 231.959,84.053 464.01,84.053 464.01,259.66 
				336.487,259.66 336.487,275.339 479.69,275.339 			"/>
			<rect x="464.008" y="292.061" width="15.679" height="15.679"/>
			<rect x="439.967" y="292.061" width="15.679" height="15.679"/>
			<rect x="415.926" y="292.061" width="15.679" height="15.679"/>
			<rect x="336.485" y="292.061" width="15.679" height="15.679"/>
		</g>
	</g>
</g>
</svg>